<svg xmlns="http://www.w3.org/2000/svg" viewBox="0 0 48 49" fill="none">
<path d="M43.7145 42.5601C43.406 42.5601 43.0974 42.3886 42.9602 42.0972L41.246 38.7886C41.1774 38.6686 41.1431 38.5315 41.1431 38.3944V30.5601C41.1945 28.2115 38.3488 25.8115 35.5888 23.4801L34.5945 22.6401C34.2345 22.3315 34.1831 21.7829 34.4917 21.4229C34.8002 21.0629 35.3488 21.0286 35.7088 21.3201L36.7031 22.1601C39.7717 24.7486 42.9431 27.4058 42.8745 30.5772V38.1715L44.486 41.3086C44.7088 41.7372 44.5374 42.2515 44.126 42.4572C44.006 42.5258 43.8688 42.5601 43.7317 42.5601H43.7145Z" fill="#003DA6"/>
<path d="M36.8574 45.1314C36.5831 45.1314 36.3088 44.9942 36.1374 44.7542C35.1946 43.3485 34.5774 41.8056 34.286 40.1256V37.7599L29.6917 33.0971C28.9374 32.3428 28.646 31.2285 28.9374 30.1828C29.2288 29.1542 30.0517 28.3485 31.0974 28.0913C32.126 27.8342 33.2403 28.1428 33.9774 28.9142L38.3488 33.3713C38.6746 33.7142 38.6746 34.2456 38.3488 34.5885C38.006 34.9142 37.4746 34.9142 37.1317 34.5885L32.7603 30.1142C32.4346 29.7714 31.9546 29.6514 31.526 29.7542C31.0803 29.8742 30.7374 30.1999 30.6003 30.6456C30.4803 31.0913 30.6003 31.5542 30.926 31.8799L35.7603 36.7999C35.9146 36.9542 36.0003 37.1771 36.0003 37.3999V39.9714C36.2403 41.2571 36.7717 42.5771 37.5774 43.7771C37.8346 44.1714 37.7317 44.7028 37.3374 44.9599C37.1831 45.0628 37.0288 45.0971 36.8574 45.0971V45.1314Z" fill="#003DA6"/>
<path d="M12.8576 27.9885C12.6519 27.9885 12.4633 27.9199 12.309 27.7827L11.3147 26.9427C8.24616 24.3542 5.07473 21.697 5.1433 18.5427V10.9485L3.53187 7.81132C3.30902 7.38274 3.48045 6.86846 3.89187 6.66274C4.3033 6.45703 4.83473 6.61132 5.04045 7.02274L6.75473 10.3313C6.8233 10.4513 6.85759 10.5885 6.85759 10.7256V18.5599C6.80616 20.9085 9.65187 23.3085 12.4119 25.6399L13.4062 26.4799C13.7662 26.7885 13.8176 27.3199 13.509 27.6799C13.3376 27.8856 13.0976 27.9885 12.8576 27.9885Z" fill="#003DA6"/>
<path d="M16.1663 21.1142C15.3606 21.1142 14.5721 20.7885 14.0063 20.1885L9.63491 15.7313C9.3092 15.3885 9.3092 14.857 9.63491 14.5142C9.97777 14.1885 10.5263 14.1885 10.8521 14.5142L15.2235 18.9885C15.5492 19.3313 16.0121 19.4513 16.4578 19.3485C16.9035 19.2285 17.2463 18.9028 17.3835 18.457C17.5035 18.0113 17.3835 17.5485 17.0578 17.2228L12.2235 12.3028C12.0692 12.1485 11.9835 11.9256 11.9835 11.7028V9.13133C11.7435 7.84562 11.2121 6.52562 10.4063 5.32562C10.1492 4.93133 10.2521 4.3999 10.6463 4.14276C11.0406 3.88562 11.5721 3.98847 11.8292 4.38276C12.7721 5.78847 13.3892 7.33133 13.6806 9.01133V11.377L18.2749 16.0399C19.0292 16.7942 19.3206 17.9085 19.0292 18.9542C18.7378 19.9828 17.9149 20.7885 16.8692 21.0456C16.6292 21.1142 16.3892 21.1313 16.1492 21.1313L16.1663 21.1142Z" fill="#003DA6"/>
<path d="M32.5714 45.1314H13.7143C12.7714 45.1314 12 44.36 12 43.4171V17.7885C12 17.3085 12.3771 16.9314 12.8571 16.9314C13.3371 16.9314 13.7143 17.3085 13.7143 17.7885V43.4171H32.5714C33.0514 43.4171 33.4286 43.7943 33.4286 44.2743C33.4286 44.7543 33.0514 45.1314 32.5714 45.1314Z" fill="#003DA6"/>
<path d="M22.2859 9.13128H16.2859C15.8059 9.13128 15.4287 8.75414 15.4287 8.27414C15.4287 7.79414 15.8059 7.41699 16.2859 7.41699H22.2859C22.7659 7.41699 23.143 7.79414 23.143 8.27414C23.143 8.75414 22.7659 9.13128 22.2859 9.13128Z" fill="#003DA6"/>
<path d="M35.1433 32.1885C34.6633 32.1885 34.2861 31.8113 34.2861 31.3313V21.1313C34.2861 20.6513 34.6633 20.2742 35.1433 20.2742C35.6233 20.2742 36.0004 20.6513 36.0004 21.1313V31.3313C36.0004 31.8113 35.6233 32.1885 35.1433 32.1885Z" fill="#003DA6"/>
<path d="M25.7144 31.4172H16.2859C15.8059 31.4172 15.4287 31.04 15.4287 30.56C15.4287 30.08 15.8059 29.7029 16.2859 29.7029H25.7144C26.1944 29.7029 26.5716 30.08 26.5716 30.56C26.5716 31.04 26.1944 31.4172 25.7144 31.4172Z" fill="#6EA101"/>
<path d="M31.7144 26.2743H16.2859C15.8059 26.2743 15.4287 25.8972 15.4287 25.4172C15.4287 24.9372 15.8059 24.5601 16.2859 24.5601H31.7144C32.1944 24.5601 32.5716 24.9372 32.5716 25.4172C32.5716 25.8972 32.1944 26.2743 31.7144 26.2743Z" fill="#6EA101"/>
<path d="M24.0001 36.56H16.2859C15.8059 36.56 15.4287 36.1828 15.4287 35.7028C15.4287 35.2228 15.8059 34.8457 16.2859 34.8457H24.0001C24.4801 34.8457 24.8573 35.2228 24.8573 35.7028C24.8573 36.1828 24.4801 36.56 24.0001 36.56Z" fill="#6EA101"/>
<path d="M31.7143 19.4171C27.4629 19.4171 24 15.9542 24 11.7028C24 7.45138 27.4629 3.98853 31.7143 3.98853C32.1943 3.98853 32.5714 4.36567 32.5714 4.84567C32.5714 5.32567 32.1943 5.70281 31.7143 5.70281C28.4057 5.70281 25.7143 8.39424 25.7143 11.7028C25.7143 15.0114 28.4057 17.7028 31.7143 17.7028C35.0229 17.7028 37.7143 15.0114 37.7143 11.7028C37.7143 11.2228 38.0914 10.8457 38.5714 10.8457C39.0514 10.8457 39.4286 11.2228 39.4286 11.7028C39.4286 15.9542 35.9657 19.4171 31.7143 19.4171Z" fill="#003DA6"/>
<path d="M31.7147 13.9141C31.2518 13.9141 30.8233 13.7255 30.4976 13.3998L28.5433 11.4455C28.2004 11.1027 28.2004 10.5713 28.5433 10.2284C28.8861 9.88555 29.4176 9.88555 29.7604 10.2284L31.7318 12.1998L37.989 5.94269C38.3318 5.59983 38.8633 5.59983 39.2061 5.94269C39.549 6.28555 39.549 6.81698 39.2061 7.15983L32.949 13.417C32.6233 13.7427 32.1947 13.9141 31.7318 13.9141H31.7147Z" fill="#6EA101"/>
</svg>